<svg width="744" height="744" viewBox="0 0 744 744" fill="none" xmlns="http://www.w3.org/2000/svg" xmlns:xlink="http://www.w3.org/1999/xlink">
<path d="M193.293 234.043C131.793 247.043 79.2927 297.043 79.2927 297.043L77.7927 302.543C90.3762 296.111 152.266 247.991 221.793 247.043C276.584 246.295 333.613 290.999 345.293 365.043C345.293 365.043 349.793 406.543 349.793 419.043C349.793 431.543 343.293 459.543 343.293 459.543C343.293 459.543 353.293 476.543 370.793 476.543V472.543C354.793 472.043 358.293 459.543 358.293 459.543C364.793 415.543 358.293 355.043 358.293 355.043C355.793 305.543 306.793 261.543 306.793 261.543C306.793 261.543 254.793 221.043 193.293 234.043Z" fill="white"/>
<path d="M330.793 444.043C330.793 444.043 311.293 453.543 311.793 472.543C312.293 491.543 330.793 490.543 330.793 490.543C330.793 490.543 322.793 483.543 325.293 478.543C348.793 458.543 354.793 499.043 370.793 499.043V506.543C362.293 506.543 352.793 502.043 349.793 498.543C348.342 496.85 347.947 493.136 346.293 490.043C344.527 486.74 341.423 484.075 337.293 483.043C329.293 481.043 330.793 490.543 330.793 490.543L345.293 491.543L344.793 495.543H326.293C326.293 495.543 298.793 496.543 299.293 472.543C299.793 448.543 329.793 441.043 329.793 441.043L330.793 444.043Z" fill="white"/>
<path d="M354.793 530.043C354.793 530.043 354.793 516.543 357.293 506.543L361.793 507.543C361.793 507.543 360.293 520.543 360.293 530.043C360.293 530.043 363.293 535.043 370.793 535.043V560.543C367.293 560.543 363.293 558.043 361.793 557.543C360.293 557.043 355.293 553.043 343.293 552.543C331.293 552.043 327.293 557.043 317.793 557.543C308.293 558.043 294.293 556.543 287.293 555.543C280.293 554.543 284.293 549.043 287.293 548.543C290.293 548.043 302.293 549.043 321.293 539.543C340.293 530.043 354.793 530.043 354.793 530.043Z" fill="white"/>
<path d="M370.793 603.043C345.293 603.043 321.293 617.543 321.293 617.543L325.293 627.543C325.293 627.543 345.293 614.543 370.793 614.543V603.043Z" fill="white"/>
<path d="M370.793 578.043C358.293 578.043 359.793 578.543 339.793 577.043C319.793 575.543 308.293 558.543 287.793 558.043C307.293 567.543 314.293 581.043 328.793 585.043C343.293 589.043 360.793 591.043 370.793 591.043V578.043Z" fill="white"/>
<path d="M318.793 349.043C293.293 187.043 120.293 309.543 120.293 309.543L128.293 318.543C128.293 318.543 288.793 223.043 313.793 355.543L318.793 349.043Z" fill="white"/>
<path d="M278.293 315.543C238.293 271.043 169.293 316.543 169.293 316.543C169.293 316.543 198.293 348.543 227.793 352.543C257.293 356.543 278.293 344.043 303.293 354.043L305.793 352.043C271.793 336.543 258.793 351.043 232.793 344.543C206.793 338.043 183.293 319.043 183.293 319.043C212.293 303.247 243.175 301.543 264.793 319.043C286.41 336.543 278.793 329.043 306.293 351.543L310.293 350.543C310.293 350.543 303.293 346.543 278.293 315.543Z" fill="white"/>
<path d="M548.293 234.043C609.793 247.043 662.293 297.043 662.293 297.043L663.793 302.543C651.209 296.111 589.319 247.991 519.793 247.043C465.001 246.295 407.972 290.999 396.293 365.043C396.293 365.043 391.793 406.543 391.793 419.043C391.793 431.543 398.293 459.543 398.293 459.543C398.293 459.543 388.293 476.543 370.793 476.543V472.543C386.793 472.043 383.293 459.543 383.293 459.543C376.793 415.543 383.293 355.043 383.293 355.043C385.793 305.543 434.793 261.543 434.793 261.543C434.793 261.543 486.793 221.043 548.293 234.043Z" fill="white"/>
<path d="M410.793 444.043C410.793 444.043 430.293 453.543 429.793 472.543C429.293 491.543 410.793 490.543 410.793 490.543C410.793 490.543 418.793 483.543 416.293 478.543C392.793 458.543 386.793 499.043 370.793 499.043V506.543C379.293 506.543 388.793 502.043 391.793 498.543C393.244 496.85 393.638 493.136 395.293 490.043C397.059 486.74 400.162 484.075 404.293 483.043C412.293 481.043 410.793 490.543 410.793 490.543L396.293 491.543L396.793 495.543H415.293C415.293 495.543 442.793 496.543 442.293 472.543C441.793 448.543 411.793 441.043 411.793 441.043L410.793 444.043Z" fill="white"/>
<path d="M386.793 530.043C386.793 530.043 386.793 516.543 384.293 506.543L379.793 507.543C379.793 507.543 381.293 520.543 381.293 530.043C381.293 530.043 378.293 535.043 370.793 535.043V560.543C374.293 560.543 378.293 558.043 379.793 557.543C381.293 557.043 386.293 553.043 398.293 552.543C410.293 552.043 414.293 557.043 423.793 557.543C433.293 558.043 447.293 556.543 454.293 555.543C461.293 554.543 457.293 549.043 454.293 548.543C451.293 548.043 439.293 549.043 420.293 539.543C401.293 530.043 386.793 530.043 386.793 530.043Z" fill="white"/>
<path d="M370.793 603.043C396.293 603.043 420.293 617.543 420.293 617.543L416.293 627.543C416.293 627.543 396.293 614.543 370.793 614.543V603.043Z" fill="white"/>
<path d="M370.793 578.043C383.293 578.043 381.793 578.543 401.793 577.043C421.793 575.543 433.293 558.543 453.793 558.043C434.293 567.543 427.293 581.043 412.793 585.043C398.293 589.043 380.793 591.043 370.793 591.043V578.043Z" fill="white"/>
<path d="M422.793 349.043C448.293 187.043 621.293 309.543 621.293 309.543L613.293 318.543C613.293 318.543 452.793 223.043 427.793 355.543L422.793 349.043Z" fill="white"/>
<path d="M463.293 315.543C503.293 271.043 572.293 316.543 572.293 316.543C572.293 316.543 543.293 348.543 513.793 352.543C484.293 356.543 463.293 344.043 438.293 354.043L435.793 352.043C469.793 336.543 482.793 351.043 508.793 344.543C534.793 338.043 558.293 319.043 558.293 319.043C529.293 303.247 498.41 301.543 476.793 319.043C455.175 336.543 462.793 329.043 435.293 351.543L431.293 350.543C431.293 350.543 438.293 346.543 463.293 315.543Z" fill="white"/>
<path d="M370.793 67.0426C538.687 67.0426 674.793 203.148 674.793 371.043C674.793 538.937 538.687 675.043 370.793 675.043C202.898 675.043 66.7927 538.937 66.7927 371.043C66.7927 203.148 202.898 67.0426 370.793 67.0426Z" stroke="white" stroke-width="8"/>
<path d="M371.793 19.5426C566.473 19.5426 724.293 177.362 724.293 372.043C724.293 566.723 566.473 724.543 371.793 724.543C177.112 724.543 19.2927 566.723 19.2927 372.043C19.2927 177.362 177.112 19.5426 371.793 19.5426Z" stroke="white" stroke-width="15"/>
<g id="Repeat group 1_inner" data-figma-trr="r40p346-0f">
<path d="M371.793 26.0426L371.793 69.0426" stroke="white" stroke-width="10"/>
</g>
<use xlink:href="#Repeat%20group%201_inner" transform="translate(62.6964 -53.5478) rotate(9)"/>
<use xlink:href="#Repeat%20group%201_inner" transform="translate(132.998 -96.6284) rotate(18)"/>
<use xlink:href="#Repeat%20group%201_inner" transform="translate(209.173 -128.181) rotate(27)"/>
<use xlink:href="#Repeat%20group%201_inner" transform="translate(289.346 -147.429) rotate(36)"/>
<use xlink:href="#Repeat%20group%201_inner" transform="translate(371.543 -153.898) rotate(45)"/>
<use xlink:href="#Repeat%20group%201_inner" transform="translate(453.74 -147.429) rotate(54)"/>
<use xlink:href="#Repeat%20group%201_inner" transform="translate(533.913 -128.181) rotate(63)"/>
<use xlink:href="#Repeat%20group%201_inner" transform="translate(610.088 -96.6284) rotate(72)"/>
<use xlink:href="#Repeat%20group%201_inner" transform="translate(680.389 -53.5478) rotate(81)"/>
<use xlink:href="#Repeat%20group%201_inner" transform="translate(743.085 -6.31884e-06) rotate(90)"/>
<use xlink:href="#Repeat%20group%201_inner" transform="translate(796.633 62.6964) rotate(99)"/>
<use xlink:href="#Repeat%20group%201_inner" transform="translate(839.714 132.998) rotate(108)"/>
<use xlink:href="#Repeat%20group%201_inner" transform="translate(871.266 209.173) rotate(117)"/>
<use xlink:href="#Repeat%20group%201_inner" transform="translate(890.514 289.346) rotate(126)"/>
<use xlink:href="#Repeat%20group%201_inner" transform="translate(896.983 371.543) rotate(135)"/>
<use xlink:href="#Repeat%20group%201_inner" transform="translate(890.514 453.74) rotate(144)"/>
<use xlink:href="#Repeat%20group%201_inner" transform="translate(871.266 533.913) rotate(153)"/>
<use xlink:href="#Repeat%20group%201_inner" transform="translate(839.714 610.088) rotate(162)"/>
<use xlink:href="#Repeat%20group%201_inner" transform="translate(796.633 680.389) rotate(171)"/>
<use xlink:href="#Repeat%20group%201_inner" transform="translate(743.085 743.085) rotate(-180)"/>
<use xlink:href="#Repeat%20group%201_inner" transform="translate(680.389 796.633) rotate(-171)"/>
<use xlink:href="#Repeat%20group%201_inner" transform="translate(610.088 839.714) rotate(-162)"/>
<use xlink:href="#Repeat%20group%201_inner" transform="translate(533.913 871.266) rotate(-153)"/>
<use xlink:href="#Repeat%20group%201_inner" transform="translate(453.74 890.514) rotate(-144)"/>
<use xlink:href="#Repeat%20group%201_inner" transform="translate(371.543 896.983) rotate(-135)"/>
<use xlink:href="#Repeat%20group%201_inner" transform="translate(289.346 890.514) rotate(-126)"/>
<use xlink:href="#Repeat%20group%201_inner" transform="translate(209.172 871.266) rotate(-117)"/>
<use xlink:href="#Repeat%20group%201_inner" transform="translate(132.998 839.714) rotate(-108)"/>
<use xlink:href="#Repeat%20group%201_inner" transform="translate(62.6964 796.633) rotate(-99)"/>
<use xlink:href="#Repeat%20group%201_inner" transform="translate(1.81289e-05 743.085) rotate(-90)"/>
<use xlink:href="#Repeat%20group%201_inner" transform="translate(-53.5478 680.389) rotate(-81)"/>
<use xlink:href="#Repeat%20group%201_inner" transform="translate(-96.6284 610.088) rotate(-72)"/>
<use xlink:href="#Repeat%20group%201_inner" transform="translate(-128.181 533.913) rotate(-63)"/>
<use xlink:href="#Repeat%20group%201_inner" transform="translate(-147.429 453.74) rotate(-54)"/>
<use xlink:href="#Repeat%20group%201_inner" transform="translate(-153.898 371.542) rotate(-45)"/>
<use xlink:href="#Repeat%20group%201_inner" transform="translate(-147.429 289.345) rotate(-36)"/>
<use xlink:href="#Repeat%20group%201_inner" transform="translate(-128.181 209.173) rotate(-27)"/>
<use xlink:href="#Repeat%20group%201_inner" transform="translate(-96.6284 132.998) rotate(-18)"/>
<use xlink:href="#Repeat%20group%201_inner" transform="translate(-53.5477 62.6963) rotate(-8.99999)"/>
<g id="Repeat group 2_inner" data-figma-trr="r40p346-0f">
<path d="M344.684 27.0881L348.058 69.9556" stroke="white" stroke-width="10"/>
</g>
<use xlink:href="#Repeat%20group%202_inner" transform="translate(62.6964 -53.5478) rotate(9)"/>
<use xlink:href="#Repeat%20group%202_inner" transform="translate(132.998 -96.6284) rotate(18)"/>
<use xlink:href="#Repeat%20group%202_inner" transform="translate(209.173 -128.181) rotate(27)"/>
<use xlink:href="#Repeat%20group%202_inner" transform="translate(289.346 -147.429) rotate(36)"/>
<use xlink:href="#Repeat%20group%202_inner" transform="translate(371.543 -153.898) rotate(45)"/>
<use xlink:href="#Repeat%20group%202_inner" transform="translate(453.74 -147.429) rotate(54)"/>
<use xlink:href="#Repeat%20group%202_inner" transform="translate(533.913 -128.181) rotate(63)"/>
<use xlink:href="#Repeat%20group%202_inner" transform="translate(610.088 -96.6284) rotate(72)"/>
<use xlink:href="#Repeat%20group%202_inner" transform="translate(680.389 -53.5477) rotate(81)"/>
<use xlink:href="#Repeat%20group%202_inner" transform="translate(743.085 1.33336e-05) rotate(90)"/>
<use xlink:href="#Repeat%20group%202_inner" transform="translate(796.633 62.6964) rotate(99)"/>
<use xlink:href="#Repeat%20group%202_inner" transform="translate(839.714 132.998) rotate(108)"/>
<use xlink:href="#Repeat%20group%202_inner" transform="translate(871.266 209.173) rotate(117)"/>
<use xlink:href="#Repeat%20group%202_inner" transform="translate(890.514 289.346) rotate(126)"/>
<use xlink:href="#Repeat%20group%202_inner" transform="translate(896.983 371.543) rotate(135)"/>
<use xlink:href="#Repeat%20group%202_inner" transform="translate(890.514 453.74) rotate(144)"/>
<use xlink:href="#Repeat%20group%202_inner" transform="translate(871.266 533.913) rotate(153)"/>
<use xlink:href="#Repeat%20group%202_inner" transform="translate(839.714 610.088) rotate(162)"/>
<use xlink:href="#Repeat%20group%202_inner" transform="translate(796.633 680.389) rotate(171)"/>
<use xlink:href="#Repeat%20group%202_inner" transform="translate(743.085 743.085) rotate(-180)"/>
<use xlink:href="#Repeat%20group%202_inner" transform="translate(680.389 796.633) rotate(-171)"/>
<use xlink:href="#Repeat%20group%202_inner" transform="translate(610.088 839.714) rotate(-162)"/>
<use xlink:href="#Repeat%20group%202_inner" transform="translate(533.913 871.266) rotate(-153)"/>
<use xlink:href="#Repeat%20group%202_inner" transform="translate(453.74 890.514) rotate(-144)"/>
<use xlink:href="#Repeat%20group%202_inner" transform="translate(371.543 896.983) rotate(-135)"/>
<use xlink:href="#Repeat%20group%202_inner" transform="translate(289.346 890.514) rotate(-126)"/>
<use xlink:href="#Repeat%20group%202_inner" transform="translate(209.172 871.266) rotate(-117)"/>
<use xlink:href="#Repeat%20group%202_inner" transform="translate(132.998 839.714) rotate(-108)"/>
<use xlink:href="#Repeat%20group%202_inner" transform="translate(62.6964 796.633) rotate(-99)"/>
<use xlink:href="#Repeat%20group%202_inner" transform="translate(-1.52356e-06 743.085) rotate(-90)"/>
<use xlink:href="#Repeat%20group%202_inner" transform="translate(-53.5478 680.389) rotate(-81)"/>
<use xlink:href="#Repeat%20group%202_inner" transform="translate(-96.6284 610.088) rotate(-72)"/>
<use xlink:href="#Repeat%20group%202_inner" transform="translate(-128.181 533.913) rotate(-63)"/>
<use xlink:href="#Repeat%20group%202_inner" transform="translate(-147.429 453.74) rotate(-54)"/>
<use xlink:href="#Repeat%20group%202_inner" transform="translate(-153.898 371.542) rotate(-45)"/>
<use xlink:href="#Repeat%20group%202_inner" transform="translate(-147.429 289.345) rotate(-36)"/>
<use xlink:href="#Repeat%20group%202_inner" transform="translate(-128.181 209.173) rotate(-27)"/>
<use xlink:href="#Repeat%20group%202_inner" transform="translate(-96.6284 132.998) rotate(-18)"/>
<use xlink:href="#Repeat%20group%202_inner" transform="translate(-53.5477 62.6963) rotate(-8.99999)"/>
</svg>
