<svg width="744" height="744" viewBox="0 0 744 744" fill="none" xmlns="http://www.w3.org/2000/svg" xmlns:xlink="http://www.w3.org/1999/xlink">
<path d="M195 235C133 248 80 298 80 298L79 304C92 297 153 249 223 248C278 247 335 292 347 366C347 366 351 408 351 420C351 433 345 461 345 461C345 461 355 478 372 478V474C356 473 360 461 360 461C366 417 360 356 360 356C357 307 308 263 308 263C308 263 256 222 195 235Z M332 445C332 445 313 455 313 474C314 493 332 492 332 492C332 492 324 485 327 480C350 460 356 500 372 500V508C364 508 354 503 351 500C350 498 349 494 348 491C346 488 343 485 339 484C331 482 332 492 332 492L347 493L346 497H328C328 497 300 498 301 474C301 450 331 442 331 442L332 445Z M356 531C356 531 356 518 359 508L363 509C363 509 362 522 362 531C362 531 365 536 372 536V562C369 562 365 559 363 559C362 558 357 554 345 554C333 553 329 558 319 559C310 559 296 558 289 557C282 556 286 550 289 550C292 549 304 550 323 541C342 531 356 531 356 531Z M372 604C347 604 323 619 323 619L327 629C327 629 347 616 372 616V604Z M372 579C360 579 361 580 341 578C321 577 310 560 289 559C309 569 316 582 330 586C345 590 362 592 372 592V579Z M320 350C295 188 122 311 122 311L130 320C130 320 290 224 315 357L320 350Z M280 317C240 272 171 318 171 318C171 318 200 350 229 354C259 358 280 345 305 355L307 353C273 338 260 352 234 346C208 339 185 320 185 320C214 304 244 303 266 320C288 338 280 330 308 353L312 352C312 352 305 348 280 317Z M550 235C611 248 664 298 664 298L665 304C652 297 591 249 521 248C466 247 409 292 398 366C398 366 393 408 393 420C393 433 400 461 400 461C400 461 390 478 372 478V474C388 473 385 461 385 461C378 417 385 356 385 356C387 307 436 263 436 263C436 263 488 222 550 235Z M412 445C412 445 432 455 431 474C431 493 412 492 412 492C412 492 420 485 418 480C394 460 388 500 372 500V508C381 508 390 503 393 500C394 498 395 494 397 491C398 488 401 485 406 484C414 482 412 492 412 492L398 493L398 497H417C417 497 444 498 444 474C443 450 413 442 413 442L412 445Z M388 531C388 531 388 518 386 508L381 509C381 509 383 522 383 531C383 531 380 536 372 536V562C376 562 380 559 381 559C383 558 388 554 400 554C412 553 416 558 425 559C435 559 449 558 456 557C463 556 459 550 456 550C453 549 441 550 422 541C403 531 388 531 388 531Z M372 604C398 604 422 619 422 619L418 629C418 629 398 616 372 616V604Z M372 579C385 579 383 580 403 578C423 577 435 560 455 559C436 569 429 582 414 586C400 590 382 592 372 592V579Z M424 350C450 188 623 311 623 311L615 320C615 320 454 224 429 357L424 350Z M465 317C505 272 574 318 574 318C574 318 545 350 515 354C486 358 465 345 440 355L437 353C471 338 484 352 510 346C536 339 560 320 560 320C531 304 500 303 478 320C456 338 464 330 437 353L433 352C433 352 440 348 465 317Z" fill="white"/>
<g>
<animateTransform attributeName="transform" attributeType="XML" type="rotate" from="0 372 372" to="360 372 372" dur="10s" repeatCount="indefinite"/>
<path d="M372 68C540 68 676 204 676 372C676 540 540 676 372 676C204 676 68 540 68 372C68 204 204 68 372 68" stroke="white" stroke-width="8"/>
<path d="M372 19C567 19 725 177 725 372C725 567 567 725 372 725C177 725 19 567 19 372C19 177 177 19 372 19" stroke="white" stroke-width="15"/>
<g id="spoke-a"><path d="M372 26L372 69" stroke="white" stroke-width="10"/></g>
<use xlink:href="#spoke-a" transform="rotate(9 372 372)"/>
<use xlink:href="#spoke-a" transform="rotate(18 372 372)"/>
<use xlink:href="#spoke-a" transform="rotate(27 372 372)"/>
<use xlink:href="#spoke-a" transform="rotate(36 372 372)"/>
<use xlink:href="#spoke-a" transform="rotate(45 372 372)"/>
<use xlink:href="#spoke-a" transform="rotate(54 372 372)"/>
<use xlink:href="#spoke-a" transform="rotate(63 372 372)"/>
<use xlink:href="#spoke-a" transform="rotate(72 372 372)"/>
<use xlink:href="#spoke-a" transform="rotate(81 372 372)"/>
<use xlink:href="#spoke-a" transform="rotate(90 372 372)"/>
<use xlink:href="#spoke-a" transform="rotate(99 372 372)"/>
<use xlink:href="#spoke-a" transform="rotate(108 372 372)"/>
<use xlink:href="#spoke-a" transform="rotate(117 372 372)"/>
<use xlink:href="#spoke-a" transform="rotate(126 372 372)"/>
<use xlink:href="#spoke-a" transform="rotate(135 372 372)"/>
<use xlink:href="#spoke-a" transform="rotate(144 372 372)"/>
<use xlink:href="#spoke-a" transform="rotate(153 372 372)"/>
<use xlink:href="#spoke-a" transform="rotate(162 372 372)"/>
<use xlink:href="#spoke-a" transform="rotate(171 372 372)"/>
<use xlink:href="#spoke-a" transform="rotate(180 372 372)"/>
<use xlink:href="#spoke-a" transform="rotate(189 372 372)"/>
<use xlink:href="#spoke-a" transform="rotate(198 372 372)"/>
<use xlink:href="#spoke-a" transform="rotate(207 372 372)"/>
<use xlink:href="#spoke-a" transform="rotate(216 372 372)"/>
<use xlink:href="#spoke-a" transform="rotate(225 372 372)"/>
<use xlink:href="#spoke-a" transform="rotate(234 372 372)"/>
<use xlink:href="#spoke-a" transform="rotate(243 372 372)"/>
<use xlink:href="#spoke-a" transform="rotate(252 372 372)"/>
<use xlink:href="#spoke-a" transform="rotate(261 372 372)"/>
<use xlink:href="#spoke-a" transform="rotate(270 372 372)"/>
<use xlink:href="#spoke-a" transform="rotate(279 372 372)"/>
<use xlink:href="#spoke-a" transform="rotate(288 372 372)"/>
<use xlink:href="#spoke-a" transform="rotate(297 372 372)"/>
<use xlink:href="#spoke-a" transform="rotate(306 372 372)"/>
<use xlink:href="#spoke-a" transform="rotate(315 372 372)"/>
<use xlink:href="#spoke-a" transform="rotate(324 372 372)"/>
<use xlink:href="#spoke-a" transform="rotate(333 372 372)"/>
<use xlink:href="#spoke-a" transform="rotate(342 372 372)"/>
<use xlink:href="#spoke-a" transform="rotate(351 372 372)"/>
<g id="spoke-b"><path d="M345 27L348 70" stroke="white" stroke-width="10"/></g>
<use xlink:href="#spoke-b" transform="rotate(9 372 372)"/>
<use xlink:href="#spoke-b" transform="rotate(18 372 372)"/>
<use xlink:href="#spoke-b" transform="rotate(27 372 372)"/>
<use xlink:href="#spoke-b" transform="rotate(36 372 372)"/>
<use xlink:href="#spoke-b" transform="rotate(45 372 372)"/>
<use xlink:href="#spoke-b" transform="rotate(54 372 372)"/>
<use xlink:href="#spoke-b" transform="rotate(63 372 372)"/>
<use xlink:href="#spoke-b" transform="rotate(72 372 372)"/>
<use xlink:href="#spoke-b" transform="rotate(81 372 372)"/>
<use xlink:href="#spoke-b" transform="rotate(90 372 372)"/>
<use xlink:href="#spoke-b" transform="rotate(99 372 372)"/>
<use xlink:href="#spoke-b" transform="rotate(108 372 372)"/>
<use xlink:href="#spoke-b" transform="rotate(117 372 372)"/>
<use xlink:href="#spoke-b" transform="rotate(126 372 372)"/>
<use xlink:href="#spoke-b" transform="rotate(135 372 372)"/>
<use xlink:href="#spoke-b" transform="rotate(144 372 372)"/>
<use xlink:href="#spoke-b" transform="rotate(153 372 372)"/>
<use xlink:href="#spoke-b" transform="rotate(162 372 372)"/>
<use xlink:href="#spoke-b" transform="rotate(171 372 372)"/>
<use xlink:href="#spoke-b" transform="rotate(180 372 372)"/>
<use xlink:href="#spoke-b" transform="rotate(189 372 372)"/>
<use xlink:href="#spoke-b" transform="rotate(198 372 372)"/>
<use xlink:href="#spoke-b" transform="rotate(207 372 372)"/>
<use xlink:href="#spoke-b" transform="rotate(216 372 372)"/>
<use xlink:href="#spoke-b" transform="rotate(225 372 372)"/>
<use xlink:href="#spoke-b" transform="rotate(234 372 372)"/>
<use xlink:href="#spoke-b" transform="rotate(243 372 372)"/>
<use xlink:href="#spoke-b" transform="rotate(252 372 372)"/>
<use xlink:href="#spoke-b" transform="rotate(261 372 372)"/>
<use xlink:href="#spoke-b" transform="rotate(270 372 372)"/>
<use xlink:href="#spoke-b" transform="rotate(279 372 372)"/>
<use xlink:href="#spoke-b" transform="rotate(288 372 372)"/>
<use xlink:href="#spoke-b" transform="rotate(297 372 372)"/>
<use xlink:href="#spoke-b" transform="rotate(306 372 372)"/>
<use xlink:href="#spoke-b" transform="rotate(315 372 372)"/>
<use xlink:href="#spoke-b" transform="rotate(324 372 372)"/>
<use xlink:href="#spoke-b" transform="rotate(333 372 372)"/>
<use xlink:href="#spoke-b" transform="rotate(342 372 372)"/>
<use xlink:href="#spoke-b" transform="rotate(351 372 372)"/>
</g>
</svg>
