<svg width="724" height="724" viewBox="0 0 724 724" fill="none" xmlns="http://www.w3.org/2000/svg">
<path d="M194.5 221.839C142.1 229.439 87 270.006 66 289.339C90.5 307.673 191.7 360.739 226.5 350.339C261.3 339.939 288 346.006 297 350.339C306.167 375.006 317.4 431.039 289 457.839C260.6 484.639 325.5 499.006 361.5 502.839C350.833 497.506 331.7 481.039 340.5 457.839C351.5 428.839 347 359.839 340.5 322.839C334 285.839 260 212.339 194.5 221.839Z" fill="white"/>
<path d="M528.5 221.839C580.9 229.439 636 270.006 657 289.339C632.5 307.673 531.3 360.739 496.5 350.339C461.7 339.939 435 346.006 426 350.339C416.833 375.006 405.6 431.039 434 457.839C462.4 484.639 397.5 499.006 361.5 502.839C372.167 497.506 391.3 481.039 382.5 457.839C371.5 428.839 376 359.839 382.5 322.839C389 285.839 463 212.339 528.5 221.839Z" fill="white"/>
<path d="M448 546C433.625 563.491 402.722 585.202 361.5 584.408C320.278 585.202 289.375 563.491 275 546L339 520C343.893 524.517 352.569 530.054 361.5 530.563C370.431 530.054 379.107 524.517 384 520L448 546Z" fill="white"/>
<circle cx="362" cy="362" r="333.5" stroke="white" stroke-width="57"/>
</svg>
